<svg width="24" height="24" viewBox="0 0 24 24" fill="none" xmlns="http://www.w3.org/2000/svg">
<path d="M15.6429 14.1384C15.4724 14.1384 15.3089 14.2061 15.1883 14.3267C15.0678 14.4472 15.0001 14.6108 15.0001 14.7812C15.0001 14.9517 15.0678 15.1153 15.1883 15.2358C15.3089 15.3564 15.4724 15.4241 15.6429 15.4241H18.6429C18.8134 15.4241 18.9769 15.3564 19.0975 15.2358C19.218 15.1153 19.2858 14.9517 19.2858 14.7812C19.2858 14.6108 19.218 14.4472 19.0975 14.3267C18.9769 14.2061 18.8134 14.1384 18.6429 14.1384H15.6429ZM1.71777 7.49554C1.71777 6.64305 2.05642 5.82549 2.65922 5.22269C3.26201 4.6199 4.07958 4.28125 4.93206 4.28125H19.0715C19.924 4.28125 20.7415 4.6199 21.3443 5.22269C21.9471 5.82549 22.2858 6.64305 22.2858 7.49554V16.4955C22.2858 17.348 21.9471 18.1656 21.3443 18.7684C20.7415 19.3712 19.924 19.7098 19.0715 19.7098H4.93292C4.08043 19.7098 3.26287 19.3712 2.66007 18.7684C2.05728 18.1656 1.71863 17.348 1.71863 16.4955L1.71777 7.49554ZM4.93206 5.56696C4.42057 5.56696 3.93003 5.77015 3.56835 6.13183C3.20668 6.49351 3.00349 6.98405 3.00349 7.49554V8.13839H21.0001V7.49554C21.0001 6.98405 20.7969 6.49351 20.4352 6.13183C20.0735 5.77015 19.583 5.56696 19.0715 5.56696H4.93206ZM3.00349 16.4955C3.00349 17.007 3.20668 17.4976 3.56835 17.8592C3.93003 18.2209 4.42057 18.4241 4.93206 18.4241H19.0715C19.583 18.4241 20.0735 18.2209 20.4352 17.8592C20.7969 17.4976 21.0001 17.007 21.0001 16.4955V9.42411H3.00435L3.00349 16.4955Z" fill="#333233"/>
</svg>
