<svg width="24" height="24" viewBox="0 0 24 24" fill="none" xmlns="http://www.w3.org/2000/svg">
<path d="M4 16.875C4 15.8804 4.42143 14.9266 5.17157 14.2233C5.92172 13.5201 6.93913 13.125 8 13.125H16C17.0609 13.125 18.0783 13.5201 18.8284 14.2233C19.5786 14.9266 20 15.8804 20 16.875C20 17.3723 19.7893 17.8492 19.4142 18.2008C19.0391 18.5525 18.5304 18.75 18 18.75H6C5.46957 18.75 4.96086 18.5525 4.58579 18.2008C4.21071 17.8492 4 17.3723 4 16.875Z" stroke="#2793FF" stroke-width="1.5" stroke-linejoin="round"/>
<path d="M12 9.375C13.6569 9.375 15 8.1158 15 6.5625C15 5.0092 13.6569 3.75 12 3.75C10.3431 3.75 9 5.0092 9 6.5625C9 8.1158 10.3431 9.375 12 9.375Z" stroke="#2793FF" stroke-width="1.5"/>
</svg>
