<svg width="24" height="25" viewBox="0 0 24 25" fill="none" xmlns="http://www.w3.org/2000/svg">
<path d="M2.625 17.75C2.32663 17.75 2.04048 17.6315 1.8295 17.4205C1.61853 17.2095 1.5 16.9234 1.5 16.625V5C1.5 4.60218 1.65804 4.22064 1.93934 3.93934C2.22064 3.65804 2.60218 3.5 3 3.5H11.25C11.6478 3.5 12.0294 3.65804 12.3107 3.93934C12.592 4.22064 12.75 4.60218 12.75 5V5.75H15.75C16.1478 5.75 16.5294 5.90804 16.8107 6.18934C17.092 6.47064 17.25 6.85218 17.25 7.25V8.75H21C21.3978 8.75 21.7794 8.90804 22.0607 9.18934C22.342 9.47064 22.5 9.85218 22.5 10.25V21.5H12.375C12.2755 21.5 12.1802 21.5395 12.1098 21.6098C12.0395 21.6802 12 21.7755 12 21.875C12 21.9745 12.0395 22.0698 12.1098 22.1402C12.1802 22.2105 12.2755 22.25 12.375 22.25H22.4363C22.3587 22.4694 22.2149 22.6594 22.0249 22.7937C21.8348 22.9281 21.6077 23.0001 21.375 23H12.375C12.0766 23 11.7905 22.8815 11.5795 22.6705C11.3685 22.4595 11.25 22.1734 11.25 21.875V20H7.125C6.82663 20 6.54048 19.8815 6.3295 19.6705C6.11853 19.4595 6 19.1734 6 18.875V17.75H2.625ZM12.6863 17C12.6087 17.2194 12.4649 17.4094 12.2749 17.5437C12.0848 17.6781 11.8577 17.7501 11.625 17.75H16.5V7.25C16.5 7.05109 16.421 6.86032 16.2803 6.71967C16.1397 6.57902 15.9489 6.5 15.75 6.5H12.75V16.25H2.625C2.52554 16.25 2.43016 16.2895 2.35984 16.3598C2.28951 16.4302 2.25 16.5255 2.25 16.625C2.25 16.7245 2.28951 16.8198 2.35984 16.8902C2.43016 16.9605 2.52554 17 2.625 17H12.6863ZM6.75 17.75H7.125C6.993 17.7505 6.868 17.7717 6.75 17.8137V17.75ZM12 15.5V5C12 4.80109 11.921 4.61032 11.7803 4.46967C11.6397 4.32902 11.4489 4.25 11.25 4.25H3.75V15.5H12ZM12 20V20.8137C12.118 20.7717 12.243 20.7505 12.375 20.75H21.75V10.25C21.75 10.0511 21.671 9.86032 21.5303 9.71967C21.3897 9.57902 21.1989 9.5 21 9.5H17.25V18.5H7.125C7.02554 18.5 6.93016 18.5395 6.85983 18.6098C6.78951 18.6802 6.75 18.7755 6.75 18.875C6.75 18.9745 6.78951 19.0698 6.85983 19.1402C6.93016 19.2105 7.02554 19.25 7.125 19.25H17.1863C17.1087 19.4694 16.9649 19.6594 16.7749 19.7937C16.5848 19.9281 16.3577 20.0001 16.125 20H12Z" fill="black"/>
</svg>
