<svg width="32" height="32" viewBox="0 0 32 32" fill="none" xmlns="http://www.w3.org/2000/svg">
<rect width="32" height="32" rx="16" fill="#34C759" fill-opacity="0.08"/>
<path d="M12.184 9.03906C11.2769 9.1288 10.6661 9.33054 10.2097 9.78758C9.39233 10.6064 9.39233 11.9246 9.39233 14.5618V17.3584C9.39233 19.9949 9.39233 21.3138 10.2097 22.1333C11.0271 22.9528 12.3433 22.9521 14.9749 22.9521H16.3711C19.0028 22.9521 20.3189 22.9521 21.1363 22.1333C21.8786 21.389 21.9475 20.2432 21.9537 18.0665" stroke="#06A561" stroke-width="1.04348" stroke-linecap="round" stroke-linejoin="round"/>
<path d="M14.9747 12.5178L15.6725 14.9526C16.062 15.7247 16.5511 15.9265 17.7664 15.996C18.7326 15.9724 19.2933 15.8583 19.7719 15.4423C20.0982 15.1585 20.2457 14.7306 20.3173 14.3049L20.5566 12.8656M22.3013 11.4743V14.9526M13.6356 11.0799C14.7396 10.1637 15.7232 9.67187 17.7636 9.13065C17.9938 9.06988 18.2359 9.07108 18.4655 9.13413C20.2714 9.63082 21.2467 10.0719 22.5532 11.0527C22.6088 11.0945 22.6255 11.1724 22.5865 11.2301C22.1601 11.8576 21.2078 12.3661 18.8718 13.2719C18.3852 13.4591 17.846 13.4561 17.3615 13.2635C14.8738 12.2757 13.7302 11.747 13.5911 11.1981C13.5865 11.1762 13.5883 11.1535 13.5962 11.1326C13.6041 11.1116 13.6177 11.0933 13.6356 11.0799Z" stroke="#06A561" stroke-width="1.04348" stroke-linecap="round" stroke-linejoin="round"/>
</svg>
