<svg width="32" height="32" viewBox="0 0 32 32" fill="none" xmlns="http://www.w3.org/2000/svg">
<rect width="32" height="32" rx="16" fill="#FD873B" fill-opacity="0.1"/>
<path d="M20.8698 11.126L16.0002 9.03906L11.1307 11.126L13.5654 12.1695V13.5608M20.8698 11.126L18.435 12.1695V13.5608M20.8698 11.126V13.9086M13.5654 13.5608C13.5654 13.5608 14.3773 13.213 16.0002 13.213C17.6232 13.213 18.435 13.5608 18.435 13.5608M13.5654 13.5608V14.2565C13.5654 14.5762 13.6284 14.8928 13.7508 15.1882C13.8731 15.4836 14.0525 15.752 14.2786 15.9781C14.5047 16.2042 14.7731 16.3835 15.0685 16.5059C15.3639 16.6283 15.6805 16.6912 16.0002 16.6912C16.32 16.6912 16.6366 16.6283 16.932 16.5059C17.2274 16.3835 17.4958 16.2042 17.7219 15.9781C17.948 15.752 18.1273 15.4836 18.2497 15.1882C18.372 14.8928 18.435 14.5762 18.435 14.2565V13.5608M13.0667 19.2672C12.3014 19.7438 10.2938 20.7156 11.516 21.9323C12.1136 22.5278 12.7794 22.9521 13.6148 22.9521H18.3856C19.2218 22.9521 19.8868 22.5271 20.4844 21.9323C21.7067 20.7156 19.6997 19.7438 18.9338 19.2679C18.0532 18.7207 17.037 18.4307 16.0002 18.4307C14.9634 18.4307 13.9473 18.7207 13.0667 19.2679" stroke="#FD873B" stroke-width="1.04348" stroke-linecap="round" stroke-linejoin="round"/>
</svg>
