<svg width="24" height="24" viewBox="0 0 24 24" fill="none" xmlns="http://www.w3.org/2000/svg">
<path d="M19.6327 7.1084L13.1587 3.0884C12.8045 2.86725 12.3953 2.75 11.9777 2.75C11.5601 2.75 11.1509 2.86725 10.7967 3.0884L4.3237 7.1314C3.95565 7.3635 3.66354 7.6982 3.48337 8.09427C3.30319 8.49033 3.24282 8.93045 3.3097 9.3604L4.9797 19.3874C5.06797 19.9123 5.34109 20.3883 5.7497 20.7295C6.15831 21.0706 6.67546 21.2543 7.2077 21.2474H16.7897C17.3221 21.2545 17.8395 21.0709 18.2483 20.7298C18.6571 20.3887 18.9304 19.9125 19.0187 19.3874L20.6887 9.3604C20.7559 8.92255 20.6911 8.4746 20.5027 8.0737C20.3142 7.67279 20.0107 7.33709 19.6307 7.1094" stroke="#8E8D8B" stroke-width="1.5" stroke-linecap="round" stroke-linejoin="round"/>
<path d="M14.611 11.5312H9.38999C8.66899 11.5312 8.08398 12.0713 8.08398 12.7393V16.3622C8.08398 17.0292 8.66899 17.5702 9.38999 17.5702H14.612C15.333 17.5702 15.918 17.0292 15.918 16.3622V12.7393C15.918 12.0723 15.333 11.5312 14.612 11.5312" stroke="#8E8D8B" stroke-width="1.5" stroke-linecap="round" stroke-linejoin="round"/>
<path d="M9.58496 11.5361V10.3291C9.58496 10.0119 9.64743 9.69788 9.76879 9.40488C9.89016 9.11188 10.068 8.84565 10.2923 8.6214C10.5166 8.39715 10.7828 8.21926 11.0758 8.09789C11.3688 7.97653 11.6828 7.91406 12 7.91406C12.3171 7.91406 12.6311 7.97653 12.9241 8.09789C13.2171 8.21926 13.4834 8.39715 13.7076 8.6214C13.9319 8.84565 14.1098 9.11188 14.2311 9.40488C14.3525 9.69788 14.415 10.0119 14.415 10.3291V11.5361" stroke="#8E8D8B" stroke-width="1.5" stroke-linecap="round" stroke-linejoin="round"/>
</svg>
