<svg width="46" height="46" viewBox="0 0 46 46" fill="none" xmlns="http://www.w3.org/2000/svg">
<rect width="46" height="46" rx="23" fill="#CED3E0" fill-opacity="0.3"/>
<path d="M24.5 30.5H30.629L28.6895 32.4395L29.75 33.5L33.5 29.75L29.75 26L28.6895 27.0605L30.629 29H24.5V30.5ZM18.5 26.75H22.25V28.25H18.5V26.75ZM18.5 23H26V24.5H18.5V23Z" fill="#33487D"/>
<path d="M29.525 17.975L24.275 12.725C24.125 12.575 23.975 12.5 23.75 12.5H16.25C15.425 12.5 14.75 13.175 14.75 14V32C14.75 32.8272 15.4235 33.5 16.25 33.5H22.25V32H16.25V14H22.25V18.5C22.25 19.325 22.925 20 23.75 20H28.25V24.5H29.75V18.5C29.75 18.275 29.675 18.125 29.525 17.975ZM23.75 18.5V14.3L27.95 18.5H23.75Z" fill="#33487D"/>
</svg>
