<svg width="24" height="24" viewBox="0 0 24 24" fill="none" xmlns="http://www.w3.org/2000/svg">
<path d="M13.5 19.5H19.629L17.6895 21.4395L18.75 22.5L22.5 18.75L18.75 15L17.6895 16.0605L19.629 18H13.5V19.5ZM7.5 15.75H11.25V17.25H7.5V15.75ZM7.5 12H15V13.5H7.5V12Z" fill="#8E8D8B"/>
<path d="M18.525 6.975L13.275 1.725C13.125 1.575 12.975 1.5 12.75 1.5H5.25C4.425 1.5 3.75 2.175 3.75 3V21C3.75 21.8272 4.4235 22.5 5.25 22.5H11.25V21H5.25V3H11.25V7.5C11.25 8.325 11.925 9 12.75 9H17.25V13.5H18.75V7.5C18.75 7.275 18.675 7.125 18.525 6.975ZM12.75 7.5V3.3L16.95 7.5H12.75Z" fill="#8E8D8B"/>
</svg>
