<svg width="40" height="40" viewBox="0 0 40 40" fill="none" xmlns="http://www.w3.org/2000/svg">
<rect width="40" height="40" rx="20" fill="#D4E9FF"/>
<path d="M19.997 14.8147L20.2592 14.5525L19.997 14.291L19.7347 14.5525L19.997 14.8147ZM19.6266 21.4814C19.6266 21.5796 19.6656 21.6738 19.7351 21.7433C19.8045 21.8127 19.8987 21.8518 19.997 21.8518C20.0952 21.8518 20.1894 21.8127 20.2589 21.7433C20.3283 21.6738 20.3673 21.5796 20.3673 21.4814H19.6266ZM23.9629 18.2562L20.2592 14.5525L19.7347 15.0769L23.4384 18.7806L23.9629 18.2562ZM19.7347 14.5525L16.031 18.2562L16.5555 18.7806L20.2592 15.0769L19.7347 14.5525ZM19.6266 14.8147V21.4814H20.3673V14.8147H19.6266Z" fill="#696765"/>
<path d="M14.8145 22.9629V23.7036C14.8145 24.0965 14.9705 24.4734 15.2484 24.7512C15.5262 25.029 15.903 25.1851 16.2959 25.1851H23.7033C24.0963 25.1851 24.4731 25.029 24.7509 24.7512C25.0287 24.4734 25.1848 24.0965 25.1848 23.7036V22.9629" stroke="#696765" stroke-width="1.11111"/>
</svg>
